{
  "accessors": [
    {
      "bufferView": 2,
      "componentType": 5126,
      "count": 65532,
      "max": [
        31.454267501831055,
        15.644238471984863,
        160.96627807617188
      ],
      "min": [
        -31.603439331054688,
        -9.174254417419434,
        92.3523941040039
      ],
      "type": "VEC3"
    },
    {
      "bufferView": 2,
      "byteOffset": 786384,
      "componentType": 5126,
      "count": 65532,
      "max": [
        0.9999646544456482,
        0.9999962449073792,
        0.9997501373291016
      ],
      "min": [
        -0.9999954700469971,
        -0.9999946355819702,
        -0.9978291392326355
      ],
      "type": "VEC3"
    },
    {
      "bufferView": 3,
      "componentType": 5126,
      "count": 65532,
      "max": [
        0.9999995827674866,
        0.9999850392341614,
        0.9282599091529846,
        1.0
      ],
      "min": [
        -0.9999994039535522,
        -0.9998893141746521,
        -0.9714478850364685,
        1.0
      ],
      "type": "VEC4"
    },
    {
      "bufferView": 1,
      "componentType": 5126,
      "count": 65532,
      "max": [
        0.930092990398407,
        0.9732990264892578
      ],
      "min": [
        0.04468800127506256,
        0.017508000135421753
      ],
      "type": "VEC2"
    },
    {
      "bufferView": 0,
      "componentType": 5125,
      "count": 353457,
      "type": "SCALAR"
    },
    {
      "bufferView": 2,
      "byteOffset": 1572768,
      "componentType": 5126,
      "count": 3766,
      "max": [
        20.40044593811035,
        5.14314603805542,
        143.2555389404297
      ],
      "min": [
        -12.00336742401123,
        -9.116671562194824,
        98.80272674560547
      ],
      "type": "VEC3"
    },
    {
      "bufferView": 2,
      "byteOffset": 1617960,
      "componentType": 5126,
      "count": 3766,
      "max": [
        0.9999646544456482,
        0.6685778498649597,
        0.518100917339325
      ],
      "min": [
        -0.499544233083725,
        -0.9998361468315125,
        -0.2783460021018982
      ],
      "type": "VEC3"
    },
    {
      "bufferView": 3,
      "byteOffset": 1048512,
      "componentType": 5126,
      "count": 3766,
      "max": [
        0.9979740381240845,
        0.997203528881073,
        0.07940563559532166,
        1.0
      ],
      "min": [
        -0.6449897885322571,
        -0.49824830889701843,
        -0.2602861523628235,
        1.0
      ],
      "type": "VEC4"
    },
    {
      "bufferView": 1,
      "byteOffset": 524256,
      "componentType": 5126,
      "count": 3766,
      "max": [
        0.5594840049743652,
        0.30169400572776794
      ],
      "min": [
        0.24817900359630585,
        0.0199350006878376
      ],
      "type": "VEC2"
    },
    {
      "bufferView": 0,
      "byteOffset": 1413828,
      "componentType": 5125,
      "count": 19605,
      "type": "SCALAR"
    },
    {
      "bufferView": 2,
      "byteOffset": 1663152,
      "componentType": 5126,
      "count": 65532,
      "max": [
        31.2066707611084,
        15.394327163696289,
        160.73875427246094
      ],
      "min": [
        -31.355972290039063,
        -8.952007293701172,
        92.46612548828125
      ],
      "type": "VEC3"
    },
    {
      "bufferView": 2,
      "byteOffset": 2449536,
      "componentType": 5126,
      "count": 65532,
      "max": [
        0.9999974966049194,
        0.9999946355819702,
        0.9960233569145203
      ],
      "min": [
        -0.9999665021896362,
        -0.9999969005584717,
        -0.9995194673538208
      ],
      "type": "VEC3"
    },
    {
      "bufferView": 3,
      "byteOffset": 1108768,
      "componentType": 5126,
      "count": 65532,
      "max": [
        0.9999992251396179,
        0.9997475147247314,
        0.9280220866203308,
        -1.0
      ],
      "min": [
        -1.0,
        -0.9998828768730164,
        -0.9023057222366333,
        -1.0
      ],
      "type": "VEC4"
    },
    {
      "bufferView": 1,
      "byteOffset": 554384,
      "componentType": 5126,
      "count": 65532,
      "max": [
        0.930092990398407,
        0.9732990264892578
      ],
      "min": [
        0.04468800127506256,
        0.017508000135421753
      ],
      "type": "VEC2"
    },
    {
      "bufferView": 0,
      "byteOffset": 1492248,
      "componentType": 5125,
      "count": 353457,
      "type": "SCALAR"
    },
    {
      "bufferView": 2,
      "byteOffset": 3235920,
      "componentType": 5126,
      "count": 3766,
      "max": [
        20.150476455688477,
        5.04201602935791,
        143.15138244628906
      ],
      "min": [
        -11.88934326171875,
        -8.866790771484375,
        98.85984802246094
      ],
      "type": "VEC3"
    },
    {
      "bufferView": 2,
      "byteOffset": 3281112,
      "componentType": 5126,
      "count": 3766,
      "max": [
        0.4995749890804291,
        0.9998371005058289,
        0.2787880301475525
      ],
      "min": [
        -0.9999665021896362,
        -0.6689406037330627,
        -0.518098771572113
      ],
      "type": "VEC3"
    },
    {
      "bufferView": 3,
      "byteOffset": 2157280,
      "componentType": 5126,
      "count": 3766,
      "max": [
        0.9979830980300903,
        0.997538685798645,
        0.06513752043247223,
        -1.0
      ],
      "min": [
        -0.6451833248138428,
        -0.49806901812553406,
        -0.1905404031276703,
        -1.0
      ],
      "type": "VEC4"
    },
    {
      "bufferView": 1,
      "byteOffset": 1078640,
      "componentType": 5126,
      "count": 3766,
      "max": [
        0.5594840049743652,
        0.30169400572776794
      ],
      "min": [
        0.24817900359630585,
        0.0199350006878376
      ],
      "type": "VEC2"
    },
    {
      "bufferView": 0,
      "byteOffset": 2906076,
      "componentType": 5125,
      "count": 19605,
      "type": "SCALAR"
    },
    {
      "bufferView": 2,
      "byteOffset": 3326304,
      "componentType": 5126,
      "count": 65532,
      "max": [
        30.300662994384766,
        15.634830474853516,
        160.11416625976563
      ],
      "min": [
        -30.386337280273438,
        -7.506990909576416,
        96.9398422241211
      ],
      "type": "VEC3"
    },
    {
      "bufferView": 2,
      "byteOffset": 4112688,
      "componentType": 5126,
      "count": 65532,
      "max": [
        0.9999942183494568,
        0.9999890923500061,
        0.9999925494194031
      ],
      "min": [
        -0.9999896287918091,
        -0.9999940991401672,
        -0.9999847412109375
      ],
      "type": "VEC3"
    },
    {
      "bufferView": 3,
      "byteOffset": 2217536,
      "componentType": 5126,
      "count": 65532,
      "max": [
        1.0,
        1.0,
        1.0,
        1.0
      ],
      "min": [
        -1.0,
        -1.0,
        -1.0,
        1.0
      ],
      "type": "VEC4"
    },
    {
      "bufferView": 1,
      "byteOffset": 1108768,
      "componentType": 5126,
      "count": 65532,
      "max": [
        0.9254270195960999,
        0.9731720089912415
      ],
      "min": [
        0.11926700174808502,
        0.059349000453948975
      ],
      "type": "VEC2"
    },
    {
      "bufferView": 0,
      "byteOffset": 2984496,
      "componentType": 5125,
      "count": 348003,
      "type": "SCALAR"
    },
    {
      "bufferView": 2,
      "byteOffset": 4899072,
      "componentType": 5126,
      "count": 65532,
      "max": [
        31.454267501831055,
        12.245290756225586,
        160.1095428466797
      ],
      "min": [
        -31.603439331054688,
        -8.624727249145508,
        92.3523941040039
      ],
      "type": "VEC3"
    },
    {
      "bufferView": 2,
      "byteOffset": 5685456,
      "componentType": 5126,
      "count": 65532,
      "max": [
        0.9999997615814209,
        0.9997830986976624,
        0.9999768733978271
      ],
      "min": [
        -0.9999929070472717,
        -0.9998396635055542,
        -0.9999854564666748
      ],
      "type": "VEC3"
    },
    {
      "bufferView": 3,
      "byteOffset": 3266048,
      "componentType": 5126,
      "count": 65532,
      "max": [
        1.0,
        1.0,
        1.0,
        1.0
      ],
      "min": [
        -1.0,
        -1.0,
        -1.0,
        1.0
      ],
      "type": "VEC4"
    },
    {
      "bufferView": 1,
      "byteOffset": 1633024,
      "componentType": 5126,
      "count": 65532,
      "max": [
        0.8228170275688171,
        0.9732990264892578
      ],
      "min": [
        0.04468800127506256,
        0.019192000851035118
      ],
      "type": "VEC2"
    },
    {
      "bufferView": 0,
      "byteOffset": 4376508,
      "componentType": 5125,
      "count": 347124,
      "type": "SCALAR"
    },
    {
      "bufferView": 2,
      "byteOffset": 6471840,
      "componentType": 5126,
      "count": 49479,
      "max": [
        20.377538681030273,
        15.628804206848145,
        158.24850463867188
      ],
      "min": [
        -18.996797561645508,
        -9.174254417419434,
        97.28986358642578
      ],
      "type": "VEC3"
    },
    {
      "bufferView": 2,
      "byteOffset": 7065588,
      "componentType": 5126,
      "count": 49479,
      "max": [
        0.9999667406082153,
        0.999980628490448,
        0.9999867677688599
      ],
      "min": [
        -0.9999992251396179,
        -0.9999944567680359,
        -0.999984622001648
      ],
      "type": "VEC3"
    },
    {
      "bufferView": 3,
      "byteOffset": 4314560,
      "componentType": 5126,
      "count": 49479,
      "max": [
        1.0,
        1.0,
        1.0,
        1.0
      ],
      "min": [
        -1.0,
        -1.0,
        -1.0,
        1.0
      ],
      "type": "VEC4"
    },
    {
      "bufferView": 1,
      "byteOffset": 2157280,
      "componentType": 5126,
      "count": 49479,
      "max": [
        0.930092990398407,
        0.44191300868988037
      ],
      "min": [
        0.24817900359630585,
        0.017508000135421753
      ],
      "type": "VEC2"
    },
    {
      "bufferView": 0,
      "byteOffset": 5765004,
      "componentType": 5125,
      "count": 260457,
      "type": "SCALAR"
    },
    {
      "bufferView": 2,
      "byteOffset": 7659336,
      "componentType": 5126,
      "count": 17660,
      "max": [
        28.646963119506836,
        1.294625997543335,
        152.2911834716797
      ],
      "min": [
        -28.952133178710938,
        -9.158642768859863,
        94.55473327636719
      ],
      "type": "VEC3"
    },
    {
      "bufferView": 2,
      "byteOffset": 7871256,
      "componentType": 5126,
      "count": 17660,
      "max": [
        0.9998907446861267,
        0.9998905062675476,
        1.0
      ],
      "min": [
        -0.9998905062675476,
        -0.9998907446861267,
        -1.0
      ],
      "type": "VEC3"
    },
    {
      "bufferView": 1,
      "byteOffset": 2553112,
      "componentType": 5126,
      "count": 17660,
      "max": [
        0.5207419991493225,
        0.9226109981536865
      ],
      "min": [
        0.46393701434135437,
        0.8670039772987366
      ],
      "type": "VEC2"
    },
    {
      "bufferView": 0,
      "byteOffset": 6806832,
      "componentType": 5125,
      "count": 103680,
      "type": "SCALAR"
    }
  ],
  "asset": {
    "extras": {
      "author": "Digital Fashionwear (DF) (https://sketchfab.com/digitalfashionwear)",
      "license": "CC-BY-4.0 (http://creativecommons.org/licenses/by/4.0/)",
      "source": "https://sketchfab.com/3d-models/unisex-denim-shirt-design-a685d590d0724ea4a27aeb2aaa851c89",
      "title": "Unisex Denim Shirt Design"
    },
    "generator": "Sketchfab-14.81.0",
    "version": "2.0"
  },
  "bufferViews": [
    {
      "buffer": 0,
      "byteLength": 7221552,
      "name": "floatBufferViews",
      "target": 34963
    },
    {
      "buffer": 0,
      "byteLength": 2694392,
      "byteOffset": 7221552,
      "byteStride": 8,
      "name": "floatBufferViews",
      "target": 34962
    },
    {
      "buffer": 0,
      "byteLength": 8083176,
      "byteOffset": 9915944,
      "byteStride": 12,
      "name": "floatBufferViews",
      "target": 34962
    },
    {
      "buffer": 0,
      "byteLength": 5106224,
      "byteOffset": 17999120,
      "byteStride": 16,
      "name": "floatBufferViews",
      "target": 34962
    }
  ],
  "buffers": [
    {
      "byteLength": 23105344,
      "uri": "tshirt2.bin"
    }
  ],
  "extensionsRequired": [
    "KHR_materials_pbrSpecularGlossiness"
  ],
  "extensionsUsed": [
    "KHR_materials_pbrSpecularGlossiness"
  ],
  "images": [
    {
      "uri": "textures/DF_Denim_FRONT_2670_diffuse.png"
    },
    {
      "uri": "textures/DF_Denim_FRONT_2670_normal.png"
    }
  ],
  "materials": [
    {
      "doubleSided": true,
      "emissiveTexture": {
        "index": 0
      },
      "extensions": {
        "KHR_materials_pbrSpecularGlossiness": {
          "diffuseFactor": [
            1.0,
            1.0,
            1.0,
            1.0
          ],
          "diffuseTexture": {
            "index": 0
          },
          "glossinessFactor": 0.007794228634059946,
          "specularFactor": [
            0.0,
            0.0,
            0.0
          ]
        }
      },
      "name": "DF_Denim_FRONT_2670",
      "normalTexture": {
        "index": 1
      }
    },
    {
      "doubleSided": true,
      "emissiveTexture": {
        "index": 0
      },
      "extensions": {
        "KHR_materials_pbrSpecularGlossiness": {
          "diffuseFactor": [
            1.0,
            1.0,
            1.0,
            1.0
          ],
          "diffuseTexture": {
            "index": 0
          },
          "glossinessFactor": 0.30272270949133717,
          "specularFactor": [
            0.0,
            0.0,
            0.0
          ]
        }
      },
      "name": "Material1041664"
    }
  ],
  "meshes": [
    {
      "name": "Object_0",
      "primitives": [
        {
          "attributes": {
            "NORMAL": 1,
            "POSITION": 0,
            "TANGENT": 2,
            "TEXCOORD_0": 3
          },
          "indices": 4,
          "material": 0,
          "mode": 4
        }
      ]
    },
    {
      "name": "Object_1",
      "primitives": [
        {
          "attributes": {
            "NORMAL": 6,
            "POSITION": 5,
            "TANGENT": 7,
            "TEXCOORD_0": 8
          },
          "indices": 9,
          "material": 0,
          "mode": 4
        }
      ]
    },
    {
      "name": "Object_2",
      "primitives": [
        {
          "attributes": {
            "NORMAL": 11,
            "POSITION": 10,
            "TANGENT": 12,
            "TEXCOORD_0": 13
          },
          "indices": 14,
          "material": 0,
          "mode": 4
        }
      ]
    },
    {
      "name": "Object_3",
      "primitives": [
        {
          "attributes": {
            "NORMAL": 16,
            "POSITION": 15,
            "TANGENT": 17,
            "TEXCOORD_0": 18
          },
          "indices": 19,
          "material": 0,
          "mode": 4
        }
      ]
    },
    {
      "name": "Object_4",
      "primitives": [
        {
          "attributes": {
            "NORMAL": 21,
            "POSITION": 20,
            "TANGENT": 22,
            "TEXCOORD_0": 23
          },
          "indices": 24,
          "material": 0,
          "mode": 4
        }
      ]
    },
    {
      "name": "Object_5",
      "primitives": [
        {
          "attributes": {
            "NORMAL": 26,
            "POSITION": 25,
            "TANGENT": 27,
            "TEXCOORD_0": 28
          },
          "indices": 29,
          "material": 0,
          "mode": 4
        }
      ]
    },
    {
      "name": "Object_6",
      "primitives": [
        {
          "attributes": {
            "NORMAL": 31,
            "POSITION": 30,
            "TANGENT": 32,
            "TEXCOORD_0": 33
          },
          "indices": 34,
          "material": 0,
          "mode": 4
        }
      ]
    },
    {
      "name": "Object_7",
      "primitives": [
        {
          "attributes": {
            "NORMAL": 36,
            "POSITION": 35,
            "TEXCOORD_0": 37
          },
          "indices": 38,
          "material": 1,
          "mode": 4
        }
      ]
    }
  ],
  "nodes": [
    {
      "children": [
        1
      ],
      "matrix": [
        1.0,
        0.0,
        0.0,
        0.0,
        0.0,
        2.220446049250313e-16,
        -1.0,
        0.0,
        0.0,
        1.0,
        2.220446049250313e-16,
        0.0,
        0.0,
        0.0,
        0.0,
        1.0
      ],
      "name": "Sketchfab_model"
    },
    {
      "children": [
        2,
        3,
        4,
        5,
        6,
        7,
        8,
        9
      ],
      "name": "Unisex Denim Shirt Design.obj.cleaner.materialmerger.gles"
    },
    {
      "mesh": 0,
      "name": "Object_2"
    },
    {
      "mesh": 1,
      "name": "Object_3"
    },
    {
      "mesh": 2,
      "name": "Object_4"
    },
    {
      "mesh": 3,
      "name": "Object_5"
    },
    {
      "mesh": 4,
      "name": "Object_6"
    },
    {
      "mesh": 5,
      "name": "Object_7"
    },
    {
      "mesh": 6,
      "name": "Object_8"
    },
    {
      "mesh": 7,
      "name": "Object_9"
    }
  ],
  "samplers": [
    {
      "magFilter": 9729,
      "minFilter": 9987,
      "wrapS": 10497,
      "wrapT": 10497
    }
  ],
  "scene": 0,
  "scenes": [
    {
      "name": "Sketchfab_Scene",
      "nodes": [
        0
      ]
    }
  ],
  "textures": [
    {
      "sampler": 0,
      "source": 0
    },
    {
      "sampler": 0,
      "source": 1
    }
  ]
}
